<?xml version="1.0" standalone="no"?><!DOCTYPE svg PUBLIC "-//W3C//DTD SVG 1.1//EN" "http://www.w3.org/Graphics/SVG/1.1/DTD/svg11.dtd"><svg t="1620626372385" class="icon" viewBox="0 0 1024 1024" version="1.1" xmlns="http://www.w3.org/2000/svg" p-id="2712" xmlns:xlink="http://www.w3.org/1999/xlink" width="200" height="200"><defs><style type="text/css"></style></defs><path d="M512 0C229.23 0 0 229.23 0 512h1024C1024 229.23 794.77 0 512 0z" fill="#A7D9FF" p-id="2713"></path><path d="M655.334 464.666c-6-5.334-80.666-42.666-92.334-42.666-9 0-36.666 9.334-43 9.334-16.22 0-53.334-31.666-64-30.334s-62 14-62 14l4.666 70.334H632l23.334-20.668z" fill="#98A3BB" p-id="2714"></path><path d="M512 1024c282.77 0 512-229.23 512-512H0c0 282.77 229.23 512 512 512z" fill="#00C0D2" p-id="2715"></path><path d="M18.026 646.674C95.004 680.148 294.258 704 528 704c203.774 0 381.27-18.136 474.462-44.962 7.814-26.1 13.542-53.082 17.124-80.75C932.274 548.558 745.004 528 528 528c-247.114 0-455.608 26.662-521.888 63.166 2.93 18.876 6.982 37.374 11.914 55.508z" fill="#53CCDF" p-id="2716"></path><path d="M812 370c-14 0-117.756 74.496-138 64-27-14-76 23-148 52l2 138h483.562c8.052-36.064 12.438-73.51 12.438-112 0-70.922-14.434-138.468-40.5-199.882C944 336 886.68 384 880 384c-16 0-54-14-68-14z" fill="#896E78" p-id="2717"></path><path d="M1009.38 390.604C966.894 409.732 845.184 464 832 464c-16 0 26-46 26-46s-16-2-26-2c-16 0-192 80-192 80v128h371.562c8.052-36.064 12.438-73.51 12.438-112 0-41.844-5.144-82.468-14.62-121.396z" fill="#7D6469" p-id="2718"></path><path d="M1011.562 624c8.052-36.064 12.438-73.51 12.438-112 0-22.542-1.608-44.692-4.464-66.45C986.664 452.572 956.88 478.61 936 498c-26.046 24.188-76.132 20.614-112 11.956V624h187.562z" fill="#6B5255" p-id="2719"></path><path d="M304 288c-50-0.334-80-64-112-64-28.298 0-106.568 62.464-146.446 76.94C16.378 365.314 0 436.724 0 512c0 38.49 4.384 75.936 12.436 112H464s40.66-108.128 13-131c-104-86-157-204.894-173-205z" fill="#7D6469" p-id="2720"></path><path d="M42 474c-16.016 0-29.326 2.764-41.186 9.296A517.152 517.152 0 0 0 0 512c0 38.49 4.384 75.936 12.436 112h142.334L162 504c-44 10-85.474-30-120-30z" fill="#6B5255" p-id="2721"></path><path d="M304 288c-34.334-0.666-80-64-112-64-28.298 0-106.568 62.464-146.446 76.94-1.322 2.916-2.69 5.808-3.958 8.752 38.146 19.016 79.444 44.172 94.402 55.64 20 15.334 38.666-12 56-13.334 31.906-2.454 391.176 192.934 320 142C403 416 319.996 288.31 304 288z" fill="#896E78" p-id="2722"></path><path d="M170 286c39.058 10.652 19.152-36.28 18.71-61.56-22.37 2.964-67.968 34.968-106.028 57.546C114 275 148 280 170 286z" fill="#7D6469" p-id="2723"></path><path d="M96 624h768s-8-120-54-134c-16.348-4.976-41.516 6.064-57 4-15-2-41-16-65-14s-38 8-56 8-42-14-66-12-69-3.666-89-7c-19.43-3.238-39 1-71 5s-46.666-13-86-6c-25.336 4.508-46 10.666-58.666 7.334-16.812-4.424-28-8-47.334-5.334-16.928 2.334-33 7-50.666 7.334-22.086 0.416-24.666-2-35.334 18.666-14.318 27.74-32 128-32 128z" fill="#C8E6FA" p-id="2724"></path><path d="M118.544 522.216C106.92 562.198 96 624 96 624h768s-3.66-53.868-19.89-93.64c-10.464-4.264-21.38-7.694-29.442-7.694-21.336 0-12 80-22.668 81.334-10.668 1.334-13.832-70.5-24.5-70.5s-18.168 54.5-22.168 59.834-13.332-48.334-17.332-52c-6.69-6.132-24.5-3.334-29.334 0-4.392 3.028-10.666 41.334-20 45.334s-6.666-52-12-58.666-45 0.666-61.334 2.666c-23.858 2.92-30 43.334-42 48.668s-11.666-46.334-14.334-54.334-14.342-14.462-34.334-13C501 513 492 581.334 484 585.334s-17.334-50.666-25.334-53.334c-8-2.666-12 46.666-20 48s-1.334-36-5.334-41.334-61.334-21.334-74.666-24C345.334 512 333.334 589.334 329.334 592s-17.334-29.334-24-36-60-17.334-70.666-17.334-14.666 54.666-25.334 56c-10.666 1.334-6.666-61.334-17.334-72-10.128-10.128-56.262-3.434-73.456-0.45z" fill="#A5D7EB" p-id="2725"></path><path d="M96 624h768s-0.168-2.392-0.558-6.386c-13.696-6.736-29.67-14.168-32.442-13.614-5 1-36.82 11.254-48.5 10.5-15.5-1-106.5-7.5-118.5-8.5s-23-38-34-41-13.5 39.5-22.5 42c-8.176 2.272-63-1.5-104.5-4-25.448-1.534-54 9-77 13s-133-17.334-153.334-20c-20.704-2.716-42.666 16.334-53 17-9.006 0.582-53-21.666-60.334-27.666-3.008-2.462-43.194 1.056-56.822 4.756C98.564 609.516 96 624 96 624z" fill="#00C0D2" p-id="2726"></path><path d="M133.266 486.894C158 495.334 205.334 485.666 210 492c3.362 4.562 5 13.666 22 18.334s28.334 6.334 32 3.666c3.666-2.666 23.334-19 29.334-17s38 16.666 41.334 14.334c3.334-2.334 12.334-21.334 21-19.666 8.666 1.666 80.334 22.334 86.334 18 2.564-1.852 2.786-22.624 8-25.666 4-2.334 25.666-0.666 27 3 1.334 3.666 3.624 15 9 15 6 0 7.666-11.972 14-15.666 4-2.334 65.252 6.918 68 9.666 4 4 1.666 33.334 6 33.334s9.334-16 16.666-15.666c7.334 0.334 1.666-24 14.334-20.334s68 12.166 74.5 10.166 10-16 14.5-16-2.5 33.5 6 33 19-26 27.5-24 8 16.5 15 17S778 508.5 780 512s14.5 8.5 19 1c2.942-4.902 19.858-6.792 31.308-7.528-5.788-7.444-12.458-13.082-20.308-15.472-16.348-4.976-41.516 6.064-57 4-15-2-41-16-65-14s-38 8-56 8-42-14-66-12-69-3.666-89-7c-19.43-3.238-39 1-71 5s-46.666-13-86-6c-25.336 4.508-46 10.666-58.666 7.334-16.812-4.424-28-8-47.334-5.334-16.928 2.334-33 7-50.666 7.334-17.97 0.338-23.062-0.984-30.068 9.56z" fill="#FFFFFF" p-id="2727"></path><path d="M752.666 640H663s12.42-33.134 30.334-34c20.666-1 45.192 3.182 53.168 13.264 2.914 3.684 6.164 20.736 6.164 20.736zM653.5 640h-52.624s0.852-12.592 10.624-16.5c10.442-4.176 30.426-4.282 36.152 0.63C651 627 653.5 640 653.5 640z" fill="#C8E6FA" p-id="2728"></path><path d="M724.706 653h-47.83s0.852-11.842 10.624-15.75c10.442-4.176 25.384-2.918 31.5 1.5 4.5 3.25 5.706 14.25 5.706 14.25z" fill="#FFFFFF" p-id="2729"></path><path d="M204.666 616.666c-6.634 0-13.98 0.86-20.356 2.57C175.96 611.758 158.588 608 144 608c-16 0-32 32-32 32h118.666s-13-23.334-26-23.334z" fill="#C8E6FA" p-id="2730"></path><path d="M259.206 653H198.376s1.084-11.842 13.512-15.75c13.28-4.176 32.282-2.918 40.062 1.5 5.722 3.25 7.256 14.25 7.256 14.25z" fill="#FFFFFF" p-id="2731"></path><path d="M630.422 210.636c0-15.196 12.32-27.516 27.516-27.516 2.294 0 4.486 0.362 6.616 0.892 7.18-7.754 17.36-12.684 28.762-12.684 21.71 0 39.31 17.6 39.31 39.31l-102.204-0.002z" fill="#FFFFFF" p-id="2732"></path><path d="M616.294 144.968c0-16.708-13.544-30.252-30.25-30.252-2.522 0-4.934 0.398-7.274 0.98-7.894-8.524-19.086-13.944-31.62-13.944-1.812 0-3.534 0.316-5.288 0.534-4.302-6.72-11.478-11.434-20.05-11.434-2.018 0-3.948 0.32-5.822 0.786-6.318-6.824-15.276-11.162-25.31-11.162-19.102 0-34.59 15.488-34.59 34.59h59.96c-7.47 7.768-12.116 18.274-12.116 29.902h112.36zM560.218 226.232c-3.104 0-6.038 0.612-8.85 1.498-8.908-12.804-23.684-21.224-40.464-21.224-16.78 0-31.556 8.418-40.464 21.224-2.812-0.886-5.746-1.498-8.85-1.498-16.342 0-29.588 13.248-29.588 29.588h157.806c-0.002-16.34-13.248-29.588-29.59-29.588z" fill="#FFFFFF" p-id="2733"></path><path d="M595.33 327.21c-1.636 0-3.182 0.322-4.662 0.79-4.692-6.746-12.478-11.182-21.318-11.182-8.84 0-16.626 4.436-21.318 11.182-1.482-0.468-3.028-0.79-4.662-0.79a15.588 15.588 0 0 0-15.588 15.588h83.14a15.596 15.596 0 0 0-15.592-15.588zM392.626 185.968c0-19.374-15.706-35.08-35.078-35.08-6.712 0-12.858 2.052-18.166 5.342-1.864-0.57-3.73-1.166-5.78-1.166-2.108 0-4.1 0.416-6.008 1.016-6.046-8.694-16.08-14.41-27.472-14.41-11.394 0-21.424 5.716-27.472 14.41-1.91-0.602-3.902-1.016-6.008-1.016-11.094 0-20.088 8.994-20.088 20.088h57.482c-1.62 3.276-2.612 6.914-2.612 10.814h91.202v0.002zM789.876 276.968h36.752c0-16.188-13.124-29.31-29.31-29.31-8.5 0-16.09 3.676-21.444 9.458-1.588-0.394-3.224-0.666-4.934-0.666-5.966 0-11.224 2.636-14.974 6.7-1.062-0.124-2.078-0.396-3.176-0.396-9.55 0-17.958 4.792-23.028 12.078-1.6-0.504-3.27-0.852-5.038-0.852a16.838 16.838 0 0 0-16.838 16.838h89.806c0-5.902-3.22-10.844-7.816-13.85z" fill="#FFFFFF" p-id="2734"></path></svg>